# xmcd
#
# Track frame offsets: 
#        150
#        18390
#        36777
#        55017
#
# Disc length: 975 seconds
#
# Revision: 4
# Processed by: cddbd v1.5.2PL0 Copyright (c) Steve Scherf et al.
# Submitted via: ExactAudioCopy v1.1
#
DISCID=2703cd04
DTITLE=バカとテストと召喚獣 - Perfect-area complete!
DYEAR=2010
DGENRE=seiyu
TTITLE0=麻生夏子 - Perfect-area complete!
TTITLE1=麻生夏子 - Dream into action!
TTITLE2=麻生夏子 - Perfect-area complete! (Instrumental)
TTITLE3=麻生夏子 - Dream into action! (Instrumental)
EXTD=YEAR: 2010
EXTT0=
EXTT1=
EXTT2=
EXTT3=
PLAYORDER=
